
<svg height="100%" version="1.1" width="100%" xmlns="http://www.w3.org/2000/svg" preserveAspectRatio="xMidYMid meet" viewBox="0 0 600 442" xmlns:xlink="http://www.w3.org/1999/xlink"><desc>Created with Snap</desc><defs/><g id="root">
          <rect class="background" height="2000%" width="2000%" y="-1000%" x="-1000%" style="" fill="#ffffff"/>
          <rect class="watermarklayer" height="100%" width="100%" y="0" x="0" style="" fill="none"/>
          <g class="content" id="content" transform="matrix(1,0,0,1,170.7167,246.2278)">
            <g class="icon" style="mask: url(#mask);">
            <svg height="126.07777777777778" version="1.1" width="330.1666666666667" xmlns="http://www.w3.org/2000/svg" x="-35.80000000000001" y="-88.26666666666667"><desc>Created with Snap</desc><defs/><svg xmlns:xlink="http://www.w3.org/1999/xlink" version="1.1" xmlns="http://www.w3.org/2000/svg" viewBox="0 0 330.1666666666667 126.07777777777778"><defs/><g><path fill="#184785" stroke="none" paint-order="stroke fill markers" d=" M 42.5 32.5 L 273.6666666666667 2.5 Q 297.6666666666667 -2.5 297.6666666666667 12.5 L 307.6666666666667 33.57777777777778 Q 307.6666666666667 43.57777777777778 297.6666666666667 37.57777777777778 L 293.6666666666667 22.5 Q 293.6666666666667 2.5 267.6666666666667 9.166666666666666"/></g></svg></svg></g>
            <g class="name_and_slogan">
              <g class="name"><path d="M20.2 -30.7 L16.1 -30.7 Q14.7 -30.6 13.1 -30.2 Q11.5 -29.9 10.3 -29.2 Q9.5 -28.7 8.7 -27.9 Q8 -27.1 7.4 -26.2 Q6.8 -25.3 6.3 -24.5 Q5.9 -23.6 5.7 -23 L5.2 -21.8 Q5.1 -21.4 4.8 -21 Q4.5 -20.7 4.2 -20.6 Q3.8 -20.5 3.5 -20.7 Q3.2 -21 3 -21.8 L3.2 -23.3 L3.6 -33.6 L33.5 -33.6 L14.8 -3 L19.1 -3 Q19.5 -3 20.6 -3.2 Q21.8 -3.3 23 -3.8 Q24 -4 25.1 -4.6 Q26.1 -5.2 27.1 -6 Q28 -6.8 28.8 -7.8 Q29.5 -8.8 30 -9.6 L31.1 -11.8 Q31.9 -12.6 32.5 -12.2 Q33 -11.9 32.8 -10.2 L31.7 -0 L1.7 -0 L20.2 -30.7 ZM61.1 -26.4 Q61.8 -27.2 62.3 -28.2 Q62.7 -29.2 62.4 -30 Q62.1 -30.7 61.3 -30.9 Q60.6 -31.1 59.7 -31.2 L58.7 -31.4 Q58.3 -31.5 58 -31.7 Q57.7 -31.9 57.7 -32.5 Q57.7 -33.7 59.3 -33.7 L75.4 -33.7 Q75.7 -33.7 76.2 -33.4 Q76.7 -33.2 76.8 -32.7 Q77 -32.2 76.6 -31.8 Q76.2 -31.5 75.8 -31.4 L74.5 -31.2 Q73.8 -31 72.8 -30.7 Q71.9 -30.4 71 -29.9 Q70.2 -29.5 68.9 -28.5 Q67.6 -27.6 67 -27 L63.4 -23.5 L74.4 -6.8 Q74.9 -6 75.7 -5.1 Q76.5 -4.1 77.3 -3.5 Q78.5 -2.7 79.6 -2.2 Q80.8 -1.8 80.8 -0.9 Q80.8 0 79.8 0 L61.9 0 Q61.1 0 60.7 -0.3 Q60.3 -0.6 60.2 -1 Q60.2 -1.4 60.5 -1.7 Q60.8 -2.1 61.6 -2.2 L62.4 -2.3 Q62.9 -2.3 63.4 -2.6 Q63.9 -3 64 -3.7 Q64.1 -4.4 63.7 -5 Q63.4 -5.7 63.2 -6 L56.5 -16.7 L53.1 -13.6 L53.1 -8.6 Q53.1 -7.5 53.4 -6.2 Q53.6 -4.8 54.3 -3.9 Q54.9 -3 55.5 -2.8 Q56.2 -2.5 56.9 -2.2 Q57.8 -2 58.1 -1.8 Q58.4 -1.6 58.5 -1 Q58.8 0.1 56.9 0.1 L39 0.1 Q38.4 0.1 38.1 -0.2 Q37.7 -0.4 37.8 -1.2 Q37.7 -1.8 38.6 -2 Q39.6 -2.3 40.6 -2.7 Q41.1 -2.9 41.7 -3.6 Q42.2 -4.2 42.6 -5.1 Q43 -6 43.2 -6.9 Q43.3 -7.8 43.3 -8.4 L43.2 -42.3 Q43.2 -43.3 43 -43.9 Q42.8 -44.6 42.3 -44.9 Q41.8 -45.3 41.4 -45.4 Q41 -45.5 39.6 -45.7 L38.6 -45.9 Q38.2 -45.9 37.8 -46.2 Q37.5 -46.5 37.6 -47.1 Q37.7 -48 39 -48.1 Q40.3 -48.1 42.8 -48.5 Q44.6 -48.7 45.8 -48.9 Q46.9 -49.2 48.6 -49.6 Q50.3 -50.1 51.3 -50.5 Q52.3 -50.9 52.6 -50.7 Q53.1 -50.4 53.1 -49.9 L53.1 -18 L61.1 -26.4 ZM130.5 -24.3 Q130.4 -24.8 130.3 -25.3 Q130.2 -25.8 129.8 -26.3 Q129.5 -26.8 128.8 -27.1 Q128.1 -27.5 126.9 -27.7 Q126.2 -27.8 125.3 -27.6 Q124.4 -27.4 123.6 -27.1 Q122.7 -26.7 121.9 -26.2 Q121.2 -25.8 120.7 -25.3 L119.2 -23.8 L119.2 -8.7 Q119.2 -7.8 119.4 -6.6 Q119.5 -5.4 119.8 -4.5 Q120.2 -3.8 120.6 -3.3 Q121.1 -2.8 122 -2.4 Q122.8 -2.2 123.2 -1.8 Q123.5 -1.4 123.5 -1 Q123.5 -0.6 123.2 -0.3 Q122.9 0 122.5 0 L106.6 0 Q106.1 0 105.7 -0.3 Q105.3 -0.6 105.4 -1.2 Q105.3 -1.5 105.6 -1.7 Q105.8 -1.9 106.3 -2.1 Q106.7 -2.3 107.2 -2.5 Q107.6 -2.7 108 -3 Q108.5 -3.2 108.9 -4.2 Q109.1 -4.6 109.2 -5.3 Q109.4 -5.9 109.5 -6.6 Q109.6 -7.2 109.6 -7.7 Q109.7 -8.3 109.7 -8.5 L109.7 -24.3 Q109.6 -25.7 108.8 -26.8 Q107.9 -27.8 105.7 -27.8 Q104.4 -27.8 103 -27.3 Q101.7 -26.7 100.4 -25.6 L98.9 -24.2 L99 -8.6 Q99 -6.9 99.5 -5.1 Q99.9 -3.2 101.4 -2.5 L102.7 -1.8 Q103.5 -1.2 103.2 -0.6 Q103 0 101.7 0 L85.9 0 Q85.4 0 85 -0.3 Q84.7 -0.6 84.7 -1.2 Q84.8 -1.6 85 -1.7 Q85.2 -1.9 85.6 -2 Q85.9 -2.1 86.4 -2.3 Q86.8 -2.5 87.4 -2.8 Q87.9 -3.1 88.3 -3.8 Q88.6 -4.5 88.8 -5.4 Q89.1 -6.3 89.1 -7.1 Q89.2 -7.9 89.2 -8.5 L89.3 -26.3 Q89.3 -27.9 88.6 -28.8 Q87.8 -29.7 86.8 -29.7 L85.9 -29.9 Q85.5 -29.9 85.1 -30.1 Q84.7 -30.4 84.8 -31 Q84.9 -32 86.9 -32 Q87.8 -32.1 89 -32.3 Q90.1 -32.5 92.1 -32.9 Q94.2 -33.3 95.1 -33.6 Q96.1 -33.9 97.1 -34.3 Q98.6 -34.8 98.8 -34.4 Q99 -34 99 -32.9 L98.9 -28.4 L100.2 -29.7 Q100.8 -30.3 102.5 -31.5 Q104.2 -32.7 105.8 -33.4 Q107.6 -34.2 110 -34.5 Q112.4 -34.7 114.4 -34 Q116.4 -33.3 117.6 -32 Q118.7 -30.8 118.9 -30.2 L119.2 -28.4 Q119.7 -28.9 120.1 -29.4 Q120.5 -29.8 120.9 -30.2 Q121.3 -30.5 121.8 -30.9 Q122.3 -31.3 123.1 -31.9 Q124.7 -33 126.4 -33.7 Q128.1 -34.3 130.4 -34.5 Q133.3 -34.6 135.2 -33.7 Q137.1 -32.8 138.2 -31.5 Q139.3 -30.2 139.8 -28.8 Q140.2 -27.3 140.1 -26.1 L140.2 -8.6 Q140.2 -6.7 140.6 -5.4 Q141 -4.2 142 -3.2 Q142.6 -2.7 143.2 -2.5 Q143.7 -2.2 144.1 -2.1 Q144.6 -1.9 144.8 -1.7 Q145 -1.4 145 -1 Q145 0 143.4 0 L127.2 0 Q126.7 0 126.3 -0.3 Q125.9 -0.6 126.1 -1.2 Q126.1 -1.6 126.3 -1.7 Q126.5 -1.9 126.9 -2 Q127.2 -2.1 127.7 -2.3 Q128.2 -2.5 128.7 -3 Q129.4 -3.5 129.8 -4.2 Q130.2 -5.1 130.4 -6.5 Q130.5 -7.9 130.5 -8.5 L130.5 -24.3 L130.5 -24.3 ZM149 -16.8 Q149 -18.4 149.4 -20.6 Q149.7 -22.8 150.7 -25.1 Q151.4 -26.9 152.8 -28.5 Q154.2 -30.2 156 -31.4 Q157.7 -32.5 159.7 -33.2 Q161.6 -33.8 163.5 -33.8 Q165.4 -33.8 167.7 -33.2 Q170.1 -32.5 173.1 -30 Q174.2 -29.1 175 -28 Q175.7 -26.9 176.3 -25.7 Q176.9 -24.5 177.3 -23.4 Q177.6 -22.2 177.8 -21.4 Q178.3 -19.7 178.3 -16.8 Q178.4 -14 178.1 -12.1 Q177.7 -10.3 176.7 -7.9 Q175.6 -5.5 173.4 -3.5 Q171.4 -1.5 168.7 -0.6 Q166.1 0.3 163.9 0.2 Q160.9 0.2 158.3 -0.8 Q155.7 -1.8 153.3 -4 Q151.9 -5.3 151.1 -6.9 Q150.3 -8.4 149.8 -10.1 Q149.3 -11.7 149.2 -13.5 Q149 -15.2 149 -16.8 Z M158.7 -17.1 Q158.6 -16.3 158.7 -15 Q158.7 -13.7 158.8 -12 Q158.8 -10.4 159 -9 Q159.2 -7.7 159.5 -6.7 Q160.1 -4.7 161.1 -3.8 Q162.1 -3 163.8 -3 Q165.4 -2.9 166.7 -4.2 Q167.5 -4.9 167.9 -6.2 Q168.3 -7.4 168.5 -9 Q168.7 -10.6 168.7 -12.4 Q168.7 -14.2 168.7 -16.1 L168.6 -20.2 Q168.5 -22 168.4 -23.1 Q168.4 -24.3 168.3 -25.1 Q168 -27.1 167 -28.8 Q165.9 -30.5 163.7 -30.5 Q162.4 -30.5 161.6 -29.9 Q160.8 -29.4 160.1 -28.4 Q159.6 -27.6 159.3 -26.2 Q158.9 -24.8 158.8 -21.7 Q158.8 -20.1 158.7 -19 Q158.7 -17.9 158.7 -17.1 ZM211.8 -27.9 Q211.9 -28.2 212 -28.9 Q212.2 -29.6 212.2 -30 Q212 -30.5 211.4 -30.8 Q210.9 -31.1 210.4 -31.2 L209.3 -31.2 Q208.9 -31.3 208.5 -31.6 Q208.2 -32 208.3 -32.5 Q208.3 -33 208.8 -33.2 Q209.2 -33.5 209.8 -33.5 L219.5 -33.5 Q220.2 -33.5 220.7 -33.3 Q221.2 -33 221.2 -32.3 Q221.1 -31.8 220.8 -31.5 Q220.5 -31.2 220.3 -31.2 L219.4 -31.2 Q217.8 -31.1 216.8 -30.1 Q215.8 -29 215.4 -27.8 L206.3 -5.2 Q205.7 -3.7 205 -2.4 Q204.3 -1.1 203.5 -0.4 Q202.8 0.4 201.8 0.3 Q200.9 0.3 199.9 -0.9 Q199.3 -1.5 198.6 -3 Q197.9 -4.5 197.4 -5.9 L189.9 -23.8 Q187.8 -28.5 186.5 -29.8 Q185.9 -30.5 185.4 -30.7 Q184.9 -31 183.9 -31.2 L183.2 -31.2 Q182.7 -31.3 182.5 -31.5 Q182.3 -31.8 182.4 -32.5 Q182.5 -33.5 183.7 -33.5 L201 -33.5 Q201.9 -33.6 202.2 -33.3 Q202.6 -32.9 202.6 -32.5 Q202.6 -32 202.3 -31.6 Q202 -31.2 201.6 -31.2 L200.6 -31.2 Q199.8 -31 199.1 -30.2 Q198.4 -29.5 199.1 -27.8 L205.4 -12.2 L211.8 -27.9 ZM235 -17.9 L235.1 -14.8 Q235.2 -13.7 235.5 -12 Q235.7 -10.2 236.2 -8.8 Q236.5 -7.8 237.2 -6.9 Q237.9 -6 238.9 -5.3 Q239.8 -4.6 241 -4.2 Q242.1 -3.8 243.1 -3.8 Q244.1 -3.8 245.6 -4.1 Q247 -4.5 248 -5 Q249.4 -5.8 251.1 -7.2 Q252.7 -8.7 253.5 -10 Q254.1 -10.9 254.4 -11.2 Q254.8 -11.5 255.4 -11.7 Q256.2 -11.9 256.7 -11.1 Q257.2 -10.3 256.2 -8.4 Q255.3 -6.7 253.9 -5 Q252.4 -3.2 250.8 -2.2 Q249.2 -1.1 247.2 -0.4 Q245.3 0.3 242.2 0.3 Q237.5 0.3 234.2 -1.4 Q230.9 -3 228.9 -5.7 Q226.9 -8.4 226 -11.7 Q225.1 -15 225.1 -18.2 Q225.1 -19 225.3 -20.2 Q225.4 -21.3 225.7 -22.7 Q226.1 -24.1 226.8 -25.7 Q227.5 -27.2 228.8 -28.8 Q230.5 -30.8 232.9 -32 Q234 -32.7 234.9 -33 Q235.9 -33.4 236.7 -33.6 Q237.6 -33.8 238.5 -33.8 Q239.3 -33.9 240.4 -33.9 Q241.9 -33.9 243.1 -33.8 Q244.4 -33.7 245.5 -33.4 Q246.6 -33 247.7 -32.5 Q248.8 -32 250.2 -31 Q251.9 -29.8 253.1 -27.9 Q254.4 -26.1 254.9 -24.5 Q255.5 -23.1 255.6 -22 Q255.8 -20.8 255.9 -20.2 L256.1 -17.9 L235 -17.9 Z M246.5 -20.9 Q246.5 -21.4 246.4 -22.1 Q246.3 -22.7 246.3 -23.5 Q246.2 -24.3 246.1 -25.3 Q246 -26.1 245.6 -27.1 Q245.3 -28 244.7 -28.8 Q244 -29.5 243 -30 Q242 -30.5 240.5 -30.4 Q238.5 -30.2 237.5 -29.3 Q236.4 -28.3 236 -27 Q235.6 -25.7 235.4 -24.3 Q235.1 -22.9 235.1 -22.4 L235.1 -20.9 L246.5 -20.9 Z" style="" fill="#184785" id="namepathdata"/></g>
              <g class="slogan"/>
            </g>
            <g class="border">
            </g>
          </g>
          <defs id="defs">
            <mask xmlns="http://www.w3.org/2000/svg" id="mask">
                <rect id="showAll" fill="white" x="-35.80000000000001" y="-88.26666666666667" width="330.1666666666667" height="126.07777777777778"/>
                <rect id="hideNameBg" fill="black" x="0" y="0" width="0" height="0" stroke-width="2" stroke="black"/>
                <rect id="hideSloganBg" fill="black" x="0" y="0" width="0" height="0" stroke-width="2" stroke="black"/>
            <path d="M20.2 -30.7 L16.1 -30.7 Q14.7 -30.6 13.1 -30.2 Q11.5 -29.9 10.3 -29.2 Q9.5 -28.7 8.7 -27.9 Q8 -27.1 7.4 -26.2 Q6.8 -25.3 6.3 -24.5 Q5.9 -23.6 5.7 -23 L5.2 -21.8 Q5.1 -21.4 4.8 -21 Q4.5 -20.7 4.2 -20.6 Q3.8 -20.5 3.5 -20.7 Q3.2 -21 3 -21.8 L3.2 -23.3 L3.6 -33.6 L33.5 -33.6 L14.8 -3 L19.1 -3 Q19.5 -3 20.6 -3.2 Q21.8 -3.3 23 -3.8 Q24 -4 25.1 -4.6 Q26.1 -5.2 27.1 -6 Q28 -6.8 28.8 -7.8 Q29.5 -8.8 30 -9.6 L31.1 -11.8 Q31.9 -12.6 32.5 -12.2 Q33 -11.9 32.8 -10.2 L31.7 -0 L1.7 -0 L20.2 -30.7 ZM61.1 -26.4 Q61.8 -27.2 62.3 -28.2 Q62.7 -29.2 62.4 -30 Q62.1 -30.7 61.3 -30.9 Q60.6 -31.1 59.7 -31.2 L58.7 -31.4 Q58.3 -31.5 58 -31.7 Q57.7 -31.9 57.7 -32.5 Q57.7 -33.7 59.3 -33.7 L75.4 -33.7 Q75.7 -33.7 76.2 -33.4 Q76.7 -33.2 76.8 -32.7 Q77 -32.2 76.6 -31.8 Q76.2 -31.5 75.8 -31.4 L74.5 -31.2 Q73.8 -31 72.8 -30.7 Q71.9 -30.4 71 -29.9 Q70.2 -29.5 68.9 -28.5 Q67.6 -27.6 67 -27 L63.4 -23.5 L74.4 -6.8 Q74.9 -6 75.7 -5.1 Q76.5 -4.1 77.3 -3.5 Q78.5 -2.7 79.6 -2.2 Q80.8 -1.8 80.8 -0.9 Q80.8 0 79.8 0 L61.9 0 Q61.1 0 60.7 -0.3 Q60.3 -0.6 60.2 -1 Q60.2 -1.4 60.5 -1.7 Q60.8 -2.1 61.6 -2.2 L62.4 -2.3 Q62.9 -2.3 63.4 -2.6 Q63.9 -3 64 -3.7 Q64.1 -4.4 63.7 -5 Q63.4 -5.7 63.2 -6 L56.5 -16.7 L53.1 -13.6 L53.1 -8.6 Q53.1 -7.5 53.4 -6.2 Q53.6 -4.8 54.3 -3.9 Q54.9 -3 55.5 -2.8 Q56.2 -2.5 56.9 -2.2 Q57.8 -2 58.1 -1.8 Q58.4 -1.6 58.5 -1 Q58.8 0.1 56.9 0.1 L39 0.1 Q38.4 0.1 38.1 -0.2 Q37.7 -0.4 37.8 -1.2 Q37.7 -1.8 38.6 -2 Q39.6 -2.3 40.6 -2.7 Q41.1 -2.9 41.7 -3.6 Q42.2 -4.2 42.6 -5.1 Q43 -6 43.2 -6.9 Q43.3 -7.8 43.3 -8.4 L43.2 -42.3 Q43.2 -43.3 43 -43.9 Q42.8 -44.6 42.3 -44.9 Q41.8 -45.3 41.4 -45.4 Q41 -45.5 39.6 -45.7 L38.6 -45.9 Q38.2 -45.9 37.8 -46.2 Q37.5 -46.5 37.6 -47.1 Q37.7 -48 39 -48.1 Q40.3 -48.1 42.8 -48.5 Q44.6 -48.7 45.8 -48.9 Q46.9 -49.2 48.6 -49.6 Q50.3 -50.1 51.3 -50.5 Q52.3 -50.9 52.6 -50.7 Q53.1 -50.4 53.1 -49.9 L53.1 -18 L61.1 -26.4 ZM130.5 -24.3 Q130.4 -24.8 130.3 -25.3 Q130.2 -25.8 129.8 -26.3 Q129.5 -26.8 128.8 -27.1 Q128.1 -27.5 126.9 -27.7 Q126.2 -27.8 125.3 -27.6 Q124.4 -27.4 123.6 -27.1 Q122.7 -26.7 121.9 -26.2 Q121.2 -25.8 120.7 -25.3 L119.2 -23.8 L119.2 -8.7 Q119.2 -7.8 119.4 -6.6 Q119.5 -5.4 119.8 -4.5 Q120.2 -3.8 120.6 -3.3 Q121.1 -2.8 122 -2.4 Q122.8 -2.2 123.2 -1.8 Q123.5 -1.4 123.5 -1 Q123.5 -0.6 123.2 -0.3 Q122.9 0 122.5 0 L106.6 0 Q106.1 0 105.7 -0.3 Q105.3 -0.6 105.4 -1.2 Q105.3 -1.5 105.6 -1.7 Q105.8 -1.9 106.3 -2.1 Q106.7 -2.3 107.2 -2.5 Q107.6 -2.7 108 -3 Q108.5 -3.2 108.9 -4.2 Q109.1 -4.6 109.2 -5.3 Q109.4 -5.9 109.5 -6.6 Q109.6 -7.2 109.6 -7.7 Q109.7 -8.3 109.7 -8.5 L109.7 -24.3 Q109.6 -25.7 108.8 -26.8 Q107.9 -27.8 105.7 -27.8 Q104.4 -27.8 103 -27.3 Q101.7 -26.7 100.4 -25.6 L98.9 -24.2 L99 -8.6 Q99 -6.9 99.5 -5.1 Q99.9 -3.2 101.4 -2.5 L102.7 -1.8 Q103.5 -1.2 103.2 -0.6 Q103 0 101.7 0 L85.9 0 Q85.4 0 85 -0.3 Q84.7 -0.6 84.7 -1.2 Q84.8 -1.6 85 -1.7 Q85.2 -1.9 85.6 -2 Q85.9 -2.1 86.4 -2.3 Q86.8 -2.5 87.4 -2.8 Q87.9 -3.1 88.3 -3.8 Q88.6 -4.5 88.8 -5.4 Q89.1 -6.3 89.1 -7.1 Q89.2 -7.9 89.2 -8.5 L89.3 -26.3 Q89.3 -27.9 88.6 -28.8 Q87.8 -29.7 86.8 -29.7 L85.9 -29.9 Q85.5 -29.9 85.1 -30.1 Q84.7 -30.4 84.8 -31 Q84.9 -32 86.9 -32 Q87.8 -32.1 89 -32.3 Q90.1 -32.5 92.1 -32.9 Q94.2 -33.3 95.1 -33.6 Q96.1 -33.9 97.1 -34.3 Q98.6 -34.8 98.8 -34.4 Q99 -34 99 -32.9 L98.9 -28.4 L100.2 -29.7 Q100.8 -30.3 102.5 -31.5 Q104.2 -32.7 105.8 -33.4 Q107.6 -34.2 110 -34.5 Q112.4 -34.7 114.4 -34 Q116.4 -33.3 117.6 -32 Q118.7 -30.8 118.9 -30.2 L119.2 -28.4 Q119.7 -28.9 120.1 -29.4 Q120.5 -29.8 120.9 -30.2 Q121.3 -30.5 121.8 -30.9 Q122.3 -31.3 123.1 -31.9 Q124.7 -33 126.4 -33.7 Q128.1 -34.3 130.4 -34.5 Q133.3 -34.6 135.2 -33.7 Q137.1 -32.8 138.2 -31.5 Q139.3 -30.2 139.8 -28.8 Q140.2 -27.3 140.1 -26.1 L140.2 -8.6 Q140.2 -6.7 140.6 -5.4 Q141 -4.2 142 -3.2 Q142.6 -2.7 143.2 -2.5 Q143.7 -2.2 144.1 -2.1 Q144.6 -1.9 144.8 -1.7 Q145 -1.4 145 -1 Q145 0 143.4 0 L127.2 0 Q126.7 0 126.3 -0.3 Q125.9 -0.6 126.1 -1.2 Q126.1 -1.6 126.3 -1.7 Q126.5 -1.9 126.9 -2 Q127.2 -2.1 127.7 -2.3 Q128.2 -2.5 128.7 -3 Q129.4 -3.5 129.8 -4.2 Q130.2 -5.1 130.4 -6.5 Q130.5 -7.9 130.5 -8.5 L130.5 -24.3 L130.5 -24.3 ZM149 -16.8 Q149 -18.4 149.4 -20.6 Q149.7 -22.8 150.7 -25.1 Q151.4 -26.9 152.8 -28.5 Q154.2 -30.2 156 -31.4 Q157.7 -32.5 159.7 -33.2 Q161.6 -33.8 163.5 -33.8 Q165.4 -33.8 167.7 -33.2 Q170.1 -32.5 173.1 -30 Q174.2 -29.1 175 -28 Q175.7 -26.9 176.3 -25.7 Q176.9 -24.5 177.3 -23.4 Q177.6 -22.2 177.8 -21.4 Q178.3 -19.7 178.3 -16.8 Q178.4 -14 178.1 -12.1 Q177.7 -10.3 176.7 -7.9 Q175.6 -5.5 173.4 -3.5 Q171.4 -1.5 168.7 -0.6 Q166.1 0.3 163.9 0.2 Q160.9 0.2 158.3 -0.8 Q155.7 -1.8 153.3 -4 Q151.9 -5.3 151.1 -6.9 Q150.3 -8.4 149.8 -10.1 Q149.3 -11.7 149.2 -13.5 Q149 -15.2 149 -16.8 Z M158.7 -17.1 Q158.6 -16.3 158.7 -15 Q158.7 -13.7 158.8 -12 Q158.8 -10.4 159 -9 Q159.2 -7.7 159.5 -6.7 Q160.1 -4.7 161.1 -3.8 Q162.1 -3 163.8 -3 Q165.4 -2.9 166.7 -4.2 Q167.5 -4.9 167.9 -6.2 Q168.3 -7.4 168.5 -9 Q168.7 -10.6 168.7 -12.4 Q168.7 -14.2 168.7 -16.1 L168.6 -20.2 Q168.5 -22 168.4 -23.1 Q168.4 -24.3 168.3 -25.1 Q168 -27.1 167 -28.8 Q165.9 -30.5 163.7 -30.5 Q162.4 -30.5 161.6 -29.9 Q160.8 -29.4 160.1 -28.4 Q159.6 -27.6 159.3 -26.2 Q158.9 -24.8 158.8 -21.7 Q158.8 -20.1 158.7 -19 Q158.7 -17.9 158.7 -17.1 ZM211.8 -27.9 Q211.9 -28.2 212 -28.9 Q212.2 -29.6 212.2 -30 Q212 -30.5 211.4 -30.8 Q210.9 -31.1 210.4 -31.2 L209.3 -31.2 Q208.9 -31.3 208.5 -31.6 Q208.2 -32 208.3 -32.5 Q208.3 -33 208.8 -33.2 Q209.2 -33.5 209.8 -33.5 L219.5 -33.5 Q220.2 -33.5 220.7 -33.3 Q221.2 -33 221.2 -32.3 Q221.1 -31.8 220.8 -31.5 Q220.5 -31.2 220.3 -31.2 L219.4 -31.2 Q217.8 -31.1 216.8 -30.1 Q215.8 -29 215.4 -27.8 L206.3 -5.2 Q205.7 -3.7 205 -2.4 Q204.3 -1.1 203.5 -0.4 Q202.8 0.4 201.8 0.3 Q200.9 0.3 199.9 -0.9 Q199.3 -1.5 198.6 -3 Q197.9 -4.5 197.4 -5.9 L189.9 -23.8 Q187.8 -28.5 186.5 -29.8 Q185.9 -30.5 185.4 -30.7 Q184.9 -31 183.9 -31.2 L183.2 -31.2 Q182.7 -31.3 182.5 -31.5 Q182.3 -31.8 182.4 -32.5 Q182.5 -33.5 183.7 -33.5 L201 -33.5 Q201.9 -33.6 202.2 -33.3 Q202.6 -32.9 202.6 -32.5 Q202.6 -32 202.3 -31.6 Q202 -31.2 201.6 -31.2 L200.6 -31.2 Q199.8 -31 199.1 -30.2 Q198.4 -29.5 199.1 -27.8 L205.4 -12.2 L211.8 -27.9 ZM235 -17.9 L235.1 -14.8 Q235.2 -13.7 235.5 -12 Q235.7 -10.2 236.2 -8.8 Q236.5 -7.8 237.2 -6.9 Q237.9 -6 238.9 -5.3 Q239.8 -4.6 241 -4.2 Q242.1 -3.8 243.1 -3.8 Q244.1 -3.8 245.6 -4.1 Q247 -4.5 248 -5 Q249.4 -5.8 251.1 -7.2 Q252.7 -8.7 253.5 -10 Q254.1 -10.9 254.4 -11.2 Q254.8 -11.5 255.4 -11.7 Q256.2 -11.9 256.7 -11.1 Q257.2 -10.3 256.2 -8.4 Q255.3 -6.7 253.9 -5 Q252.4 -3.2 250.8 -2.2 Q249.2 -1.1 247.2 -0.4 Q245.3 0.3 242.2 0.3 Q237.5 0.3 234.2 -1.4 Q230.9 -3 228.9 -5.7 Q226.9 -8.4 226 -11.7 Q225.1 -15 225.1 -18.2 Q225.1 -19 225.3 -20.2 Q225.4 -21.3 225.7 -22.7 Q226.1 -24.1 226.8 -25.7 Q227.5 -27.2 228.8 -28.8 Q230.5 -30.8 232.9 -32 Q234 -32.7 234.9 -33 Q235.9 -33.4 236.7 -33.6 Q237.6 -33.8 238.5 -33.8 Q239.3 -33.9 240.4 -33.9 Q241.9 -33.9 243.1 -33.8 Q244.4 -33.7 245.5 -33.4 Q246.6 -33 247.7 -32.5 Q248.8 -32 250.2 -31 Q251.9 -29.8 253.1 -27.9 Q254.4 -26.1 254.9 -24.5 Q255.5 -23.1 255.6 -22 Q255.8 -20.8 255.9 -20.2 L256.1 -17.9 L235 -17.9 Z M246.5 -20.9 Q246.5 -21.4 246.4 -22.1 Q246.3 -22.7 246.3 -23.5 Q246.2 -24.3 246.1 -25.3 Q246 -26.1 245.6 -27.1 Q245.3 -28 244.7 -28.8 Q244 -29.5 243 -30 Q242 -30.5 240.5 -30.4 Q238.5 -30.2 237.5 -29.3 Q236.4 -28.3 236 -27 Q235.6 -25.7 235.4 -24.3 Q235.1 -22.9 235.1 -22.4 L235.1 -20.9 L246.5 -20.9 Z" style="" fill="#000000" id="masknamepathdata"/></mask>
          
          </defs>
        </g>
        </svg>